<mxfile host="Electron" modified="2024-02-21T08:19:01.985Z" agent="Mozilla/5.0 (Windows NT 10.0; Win64; x64) AppleWebKit/537.36 (KHTML, like Gecko) draw.io/22.1.21 Chrome/120.0.6099.109 Electron/28.1.0 Safari/537.36" etag="Knekcnn3J_O0NJMjIWOY" version="22.1.21" type="device">
  <diagram name="PÃ¡gina-1" id="jNb6LC5DHV5QXt1xGNjt">
    <mxGraphModel dx="1539" dy="875" grid="1" gridSize="10" guides="1" tooltips="1" connect="1" arrows="1" fold="1" page="1" pageScale="1" pageWidth="827" pageHeight="1169" math="0" shadow="0">
      <root>
        <mxCell id="0" />
        <mxCell id="1" parent="0" />
        <mxCell id="s-DEAzG-84QRkEKR8oUj-3" value="" style="shape=umlLifeline;perimeter=lifelinePerimeter;whiteSpace=wrap;html=1;container=1;dropTarget=0;collapsible=0;recursiveResize=0;outlineConnect=0;portConstraint=eastwest;newEdgeStyle={&quot;curved&quot;:0,&quot;rounded&quot;:0};participant=umlActor;" parent="1" vertex="1">
          <mxGeometry x="120" y="140" width="20" height="510" as="geometry" />
        </mxCell>
        <mxCell id="FBgJa8I9TOA2FTor0Ozj-4" value="" style="html=1;points=[[0,0,0,0,5],[0,1,0,0,-5],[1,0,0,0,5],[1,1,0,0,-5]];perimeter=orthogonalPerimeter;outlineConnect=0;targetShapes=umlLifeline;portConstraint=eastwest;newEdgeStyle={&quot;curved&quot;:0,&quot;rounded&quot;:0};" vertex="1" parent="s-DEAzG-84QRkEKR8oUj-3">
          <mxGeometry x="5" y="80" width="10" height="410" as="geometry" />
        </mxCell>
        <mxCell id="s-DEAzG-84QRkEKR8oUj-4" value="Login" style="shape=umlLifeline;perimeter=lifelinePerimeter;whiteSpace=wrap;html=1;container=1;dropTarget=0;collapsible=0;recursiveResize=0;outlineConnect=0;portConstraint=eastwest;newEdgeStyle={&quot;curved&quot;:0,&quot;rounded&quot;:0};participant=umlBoundary;" parent="1" vertex="1">
          <mxGeometry x="290" y="140" width="50" height="510" as="geometry" />
        </mxCell>
        <mxCell id="s-DEAzG-84QRkEKR8oUj-15" value="" style="html=1;points=[[0,0,0,0,5],[0,1,0,0,-5],[1,0,0,0,5],[1,1,0,0,-5]];perimeter=orthogonalPerimeter;outlineConnect=0;targetShapes=umlLifeline;portConstraint=eastwest;newEdgeStyle={&quot;curved&quot;:0,&quot;rounded&quot;:0};" parent="s-DEAzG-84QRkEKR8oUj-4" vertex="1">
          <mxGeometry x="20" y="80" width="10" height="410" as="geometry" />
        </mxCell>
        <mxCell id="s-DEAzG-84QRkEKR8oUj-6" value="" style="endArrow=classic;html=1;rounded=0;" parent="1" edge="1">
          <mxGeometry width="50" height="50" relative="1" as="geometry">
            <mxPoint x="130" y="230" as="sourcePoint" />
            <mxPoint x="310" y="230" as="targetPoint" />
          </mxGeometry>
        </mxCell>
        <mxCell id="s-DEAzG-84QRkEKR8oUj-7" value="Identificarse()" style="text;html=1;strokeColor=none;fillColor=none;align=center;verticalAlign=middle;whiteSpace=wrap;rounded=0;" parent="1" vertex="1">
          <mxGeometry x="190" y="200" width="60" height="30" as="geometry" />
        </mxCell>
        <mxCell id="s-DEAzG-84QRkEKR8oUj-11" value="userypass" style="text;html=1;strokeColor=none;fillColor=none;align=center;verticalAlign=middle;whiteSpace=wrap;rounded=0;" parent="1" vertex="1">
          <mxGeometry x="190" y="300" width="60" height="30" as="geometry" />
        </mxCell>
        <mxCell id="s-DEAzG-84QRkEKR8oUj-12" value="" style="endArrow=block;dashed=1;endFill=0;endSize=12;html=1;rounded=0;" parent="1" target="s-DEAzG-84QRkEKR8oUj-4" edge="1">
          <mxGeometry width="160" relative="1" as="geometry">
            <mxPoint x="130" y="320" as="sourcePoint" />
            <mxPoint x="290" y="320" as="targetPoint" />
          </mxGeometry>
        </mxCell>
        <mxCell id="s-DEAzG-84QRkEKR8oUj-18" value="" style="endArrow=classic;html=1;rounded=0;" parent="1" edge="1">
          <mxGeometry width="50" height="50" relative="1" as="geometry">
            <mxPoint x="324" y="330" as="sourcePoint" />
            <mxPoint x="510" y="330" as="targetPoint" />
          </mxGeometry>
        </mxCell>
        <mxCell id="s-DEAzG-84QRkEKR8oUj-19" value="Validar" style="text;html=1;strokeColor=none;fillColor=none;align=center;verticalAlign=middle;whiteSpace=wrap;rounded=0;" parent="1" vertex="1">
          <mxGeometry x="384" y="310" width="60" height="30" as="geometry" />
        </mxCell>
        <mxCell id="s-DEAzG-84QRkEKR8oUj-21" value="" style="endArrow=block;dashed=1;endFill=0;endSize=12;html=1;rounded=0;" parent="1" edge="1">
          <mxGeometry width="160" relative="1" as="geometry">
            <mxPoint x="509" y="380" as="sourcePoint" />
            <mxPoint x="319" y="380" as="targetPoint" />
          </mxGeometry>
        </mxCell>
        <mxCell id="s-DEAzG-84QRkEKR8oUj-22" value="return" style="text;html=1;strokeColor=none;fillColor=none;align=center;verticalAlign=middle;whiteSpace=wrap;rounded=0;" parent="1" vertex="1">
          <mxGeometry x="381.5" y="360" width="60" height="30" as="geometry" />
        </mxCell>
        <mxCell id="BYIfp6Ygqc_gRngqxCwi-9" value="" style="endArrow=classic;html=1;rounded=0;" parent="1" edge="1">
          <mxGeometry width="50" height="50" relative="1" as="geometry">
            <mxPoint x="520" y="340" as="sourcePoint" />
            <mxPoint x="680" y="340" as="targetPoint" />
          </mxGeometry>
        </mxCell>
        <mxCell id="BYIfp6Ygqc_gRngqxCwi-10" value="Validar" style="text;html=1;strokeColor=none;fillColor=none;align=center;verticalAlign=middle;whiteSpace=wrap;rounded=0;" parent="1" vertex="1">
          <mxGeometry x="580" y="320" width="60" height="30" as="geometry" />
        </mxCell>
        <mxCell id="BYIfp6Ygqc_gRngqxCwi-13" value="" style="endArrow=block;dashed=1;endFill=0;endSize=12;html=1;rounded=0;" parent="1" edge="1">
          <mxGeometry width="160" relative="1" as="geometry">
            <mxPoint x="680" y="370" as="sourcePoint" />
            <mxPoint x="520" y="370" as="targetPoint" />
          </mxGeometry>
        </mxCell>
        <mxCell id="BYIfp6Ygqc_gRngqxCwi-14" value="return" style="text;html=1;strokeColor=none;fillColor=none;align=center;verticalAlign=middle;whiteSpace=wrap;rounded=0;" parent="1" vertex="1">
          <mxGeometry x="552.5" y="350" width="60" height="30" as="geometry" />
        </mxCell>
        <mxCell id="FBgJa8I9TOA2FTor0Ozj-2" value="Usuario" style="shape=umlLifeline;perimeter=lifelinePerimeter;whiteSpace=wrap;html=1;container=1;dropTarget=0;collapsible=0;recursiveResize=0;outlineConnect=0;portConstraint=eastwest;newEdgeStyle={&quot;curved&quot;:0,&quot;rounded&quot;:0};participant=umlControl;" vertex="1" parent="1">
          <mxGeometry x="490" y="140" width="56" height="510" as="geometry" />
        </mxCell>
        <mxCell id="FBgJa8I9TOA2FTor0Ozj-5" value="" style="html=1;points=[[0,0,0,0,5],[0,1,0,0,-5],[1,0,0,0,5],[1,1,0,0,-5]];perimeter=orthogonalPerimeter;outlineConnect=0;targetShapes=umlLifeline;portConstraint=eastwest;newEdgeStyle={&quot;curved&quot;:0,&quot;rounded&quot;:0};" vertex="1" parent="FBgJa8I9TOA2FTor0Ozj-2">
          <mxGeometry x="23" y="170" width="10" height="80" as="geometry" />
        </mxCell>
        <mxCell id="FBgJa8I9TOA2FTor0Ozj-3" value="&amp;nbsp;BBDD" style="shape=umlLifeline;perimeter=lifelinePerimeter;whiteSpace=wrap;html=1;container=1;dropTarget=0;collapsible=0;recursiveResize=0;outlineConnect=0;portConstraint=eastwest;newEdgeStyle={&quot;curved&quot;:0,&quot;rounded&quot;:0};participant=umlEntity;" vertex="1" parent="1">
          <mxGeometry x="660" y="150" width="40" height="500" as="geometry" />
        </mxCell>
        <mxCell id="FBgJa8I9TOA2FTor0Ozj-6" value="" style="html=1;points=[[0,0,0,0,5],[0,1,0,0,-5],[1,0,0,0,5],[1,1,0,0,-5]];perimeter=orthogonalPerimeter;outlineConnect=0;targetShapes=umlLifeline;portConstraint=eastwest;newEdgeStyle={&quot;curved&quot;:0,&quot;rounded&quot;:0};" vertex="1" parent="FBgJa8I9TOA2FTor0Ozj-3">
          <mxGeometry x="15" y="170" width="10" height="60" as="geometry" />
        </mxCell>
        <mxCell id="FBgJa8I9TOA2FTor0Ozj-7" value="loop" style="shape=umlFrame;whiteSpace=wrap;html=1;pointerEvents=0;" vertex="1" parent="1">
          <mxGeometry x="-20" y="220" width="740" height="210" as="geometry" />
        </mxCell>
        <mxCell id="FBgJa8I9TOA2FTor0Ozj-8" value="[hasta 3 &amp;amp;&amp;amp; incorrectos]" style="text;html=1;align=center;verticalAlign=middle;resizable=0;points=[];autosize=1;strokeColor=none;fillColor=none;" vertex="1" parent="1">
          <mxGeometry x="-30" y="250" width="150" height="30" as="geometry" />
        </mxCell>
        <mxCell id="FBgJa8I9TOA2FTor0Ozj-9" value="alt" style="shape=umlFrame;whiteSpace=wrap;html=1;pointerEvents=0;" vertex="1" parent="1">
          <mxGeometry x="-20" y="440" width="740" height="210" as="geometry" />
        </mxCell>
        <mxCell id="FBgJa8I9TOA2FTor0Ozj-11" value="" style="endArrow=none;html=1;rounded=0;exitX=0.005;exitY=0.476;exitDx=0;exitDy=0;exitPerimeter=0;entryX=0.997;entryY=0.471;entryDx=0;entryDy=0;entryPerimeter=0;" edge="1" parent="1" source="FBgJa8I9TOA2FTor0Ozj-9" target="FBgJa8I9TOA2FTor0Ozj-9">
          <mxGeometry width="50" height="50" relative="1" as="geometry">
            <mxPoint x="-10" y="540" as="sourcePoint" />
            <mxPoint x="360" y="540" as="targetPoint" />
          </mxGeometry>
        </mxCell>
        <mxCell id="FBgJa8I9TOA2FTor0Ozj-12" value="[Datos correctos]" style="text;html=1;align=center;verticalAlign=middle;resizable=0;points=[];autosize=1;strokeColor=none;fillColor=none;" vertex="1" parent="1">
          <mxGeometry x="-20" y="490" width="110" height="30" as="geometry" />
        </mxCell>
        <mxCell id="FBgJa8I9TOA2FTor0Ozj-13" value="[Datos incorrectos]" style="text;html=1;align=center;verticalAlign=middle;resizable=0;points=[];autosize=1;strokeColor=none;fillColor=none;" vertex="1" parent="1">
          <mxGeometry x="-15" y="580" width="120" height="30" as="geometry" />
        </mxCell>
        <mxCell id="FBgJa8I9TOA2FTor0Ozj-15" value="" style="endArrow=block;dashed=1;endFill=0;endSize=12;html=1;rounded=0;" edge="1" parent="1">
          <mxGeometry width="160" relative="1" as="geometry">
            <mxPoint x="312.5" y="610" as="sourcePoint" />
            <mxPoint x="127.5" y="610" as="targetPoint" />
          </mxGeometry>
        </mxCell>
        <mxCell id="FBgJa8I9TOA2FTor0Ozj-16" value="" style="endArrow=block;dashed=1;endFill=0;endSize=12;html=1;rounded=0;" edge="1" parent="1">
          <mxGeometry width="160" relative="1" as="geometry">
            <mxPoint x="312.5" y="480" as="sourcePoint" />
            <mxPoint x="127.5" y="480" as="targetPoint" />
          </mxGeometry>
        </mxCell>
        <mxCell id="FBgJa8I9TOA2FTor0Ozj-17" value="acceso" style="text;html=1;align=center;verticalAlign=middle;resizable=0;points=[];autosize=1;strokeColor=none;fillColor=none;" vertex="1" parent="1">
          <mxGeometry x="190" y="448" width="60" height="30" as="geometry" />
        </mxCell>
        <mxCell id="FBgJa8I9TOA2FTor0Ozj-18" value="bloqueo" style="text;html=1;align=center;verticalAlign=middle;resizable=0;points=[];autosize=1;strokeColor=none;fillColor=none;" vertex="1" parent="1">
          <mxGeometry x="185" y="578" width="70" height="30" as="geometry" />
        </mxCell>
        <mxCell id="FBgJa8I9TOA2FTor0Ozj-19" value="" style="html=1;points=[[0,0,0,0,5],[0,1,0,0,-5],[1,0,0,0,5],[1,1,0,0,-5]];perimeter=orthogonalPerimeter;outlineConnect=0;targetShapes=umlLifeline;portConstraint=eastwest;newEdgeStyle={&quot;curved&quot;:0,&quot;rounded&quot;:0};" vertex="1" parent="1">
          <mxGeometry x="513" y="553" width="10" height="80" as="geometry" />
        </mxCell>
        <mxCell id="FBgJa8I9TOA2FTor0Ozj-20" value="" style="endArrow=classic;html=1;rounded=0;" edge="1" parent="1" target="FBgJa8I9TOA2FTor0Ozj-19">
          <mxGeometry width="50" height="50" relative="1" as="geometry">
            <mxPoint x="318.5" y="584" as="sourcePoint" />
            <mxPoint x="504.5" y="584" as="targetPoint" />
          </mxGeometry>
        </mxCell>
        <mxCell id="FBgJa8I9TOA2FTor0Ozj-21" value="bloquear()" style="text;html=1;align=center;verticalAlign=middle;resizable=0;points=[];autosize=1;strokeColor=none;fillColor=none;" vertex="1" parent="1">
          <mxGeometry x="371.5" y="560" width="80" height="30" as="geometry" />
        </mxCell>
        <mxCell id="FBgJa8I9TOA2FTor0Ozj-22" value="" style="endArrow=block;dashed=1;endFill=0;endSize=12;html=1;rounded=0;" edge="1" parent="1">
          <mxGeometry width="160" relative="1" as="geometry">
            <mxPoint x="513" y="620" as="sourcePoint" />
            <mxPoint x="323" y="620" as="targetPoint" />
          </mxGeometry>
        </mxCell>
        <mxCell id="FBgJa8I9TOA2FTor0Ozj-23" value="return" style="text;html=1;align=center;verticalAlign=middle;resizable=0;points=[];autosize=1;strokeColor=none;fillColor=none;" vertex="1" parent="1">
          <mxGeometry x="385" y="598" width="50" height="30" as="geometry" />
        </mxCell>
        <mxCell id="FBgJa8I9TOA2FTor0Ozj-24" value="" style="html=1;points=[[0,0,0,0,5],[0,1,0,0,-5],[1,0,0,0,5],[1,1,0,0,-5]];perimeter=orthogonalPerimeter;outlineConnect=0;targetShapes=umlLifeline;portConstraint=eastwest;newEdgeStyle={&quot;curved&quot;:0,&quot;rounded&quot;:0};" vertex="1" parent="1">
          <mxGeometry x="675" y="560" width="10" height="55" as="geometry" />
        </mxCell>
        <mxCell id="FBgJa8I9TOA2FTor0Ozj-25" value="" style="endArrow=classic;html=1;rounded=0;" edge="1" parent="1">
          <mxGeometry width="50" height="50" relative="1" as="geometry">
            <mxPoint x="523" y="573" as="sourcePoint" />
            <mxPoint x="670" y="573" as="targetPoint" />
          </mxGeometry>
        </mxCell>
        <mxCell id="FBgJa8I9TOA2FTor0Ozj-26" value="" style="endArrow=block;dashed=1;endFill=0;endSize=12;html=1;rounded=0;exitX=0;exitY=1;exitDx=0;exitDy=-5;exitPerimeter=0;" edge="1" parent="1" source="FBgJa8I9TOA2FTor0Ozj-24">
          <mxGeometry width="160" relative="1" as="geometry">
            <mxPoint x="660" y="610" as="sourcePoint" />
            <mxPoint x="527.5" y="609" as="targetPoint" />
          </mxGeometry>
        </mxCell>
        <mxCell id="FBgJa8I9TOA2FTor0Ozj-27" value="bloquear()" style="text;html=1;align=center;verticalAlign=middle;resizable=0;points=[];autosize=1;strokeColor=none;fillColor=none;" vertex="1" parent="1">
          <mxGeometry x="552.5" y="550" width="80" height="30" as="geometry" />
        </mxCell>
        <mxCell id="FBgJa8I9TOA2FTor0Ozj-28" value="return" style="text;html=1;align=center;verticalAlign=middle;resizable=0;points=[];autosize=1;strokeColor=none;fillColor=none;" vertex="1" parent="1">
          <mxGeometry x="582.5" y="585" width="50" height="30" as="geometry" />
        </mxCell>
      </root>
    </mxGraphModel>
  </diagram>
</mxfile>
